<mxfile modified="2022-05-02T02:22:20.893Z" host="app.diagrams.net" agent="5.0 (Windows NT 10.0; Win64; x64) AppleWebKit/537.36 (KHTML, like Gecko) Chrome/100.0.4896.127 Safari/537.36 Edg/100.0.1185.50" etag="nQyypJkq4N9QP5Si466M" compressed="false" version="17.5.0" type="google">
  <diagram id="7jLlEumUiMLtJq0d6O2o" name="Intended Audience">
    <mxGraphModel grid="1" page="1" gridSize="10" guides="1" tooltips="1" connect="1" arrows="1" fold="1" pageScale="1" pageWidth="827" pageHeight="1169" math="0" shadow="0">
      <root>
        <mxCell id="R8PEM5ubBwQ5RRjLXsm--0" />
        <mxCell id="R8PEM5ubBwQ5RRjLXsm--1" parent="R8PEM5ubBwQ5RRjLXsm--0" />
      </root>
    </mxGraphModel>
  </diagram>
</mxfile>
